<svg width="26" height="26" xmlns="http://www.w3.org/2000/svg">
    <g stroke="#6F6F6F" fill="none" fill-rule="evenodd">
        <path d="M8.31 23.487H7l.567-11.737h12.92l2.598 5.025 1.947 1.39v5.322H23.82a2.667 2.667 0 0 0-.001-.621h.593v-4.38l-1.809-1.292-2.493-4.823H8.159l-.507 10.495h.659a2.666 2.666 0 0 0-.001.621zm5.246 0a2.667 2.667 0 0 0-.002-.621h5.02a2.666 2.666 0 0 0 0 .621h-5.018z" stroke-width=".2" fill="#6F6F6F" fill-rule="nonzero"/>
        <path d="M12.69 23.177a1.76 1.76 0 1 1-3.521 0 1.76 1.76 0 0 1 3.521 0zM22.923 23.177a1.76 1.76 0 1 1-3.521 0 1.76 1.76 0 0 1 3.521 0z" stroke-width=".8"/>
        <path d="M17.732 12.38l-.085-.386-.607.134.056.253h.636zm.137.622l.822 3.721 4.149-.05.007.622-4.654.056-.96-4.35h.636z" stroke-width=".2" fill="#6F6F6F" fill-rule="nonzero"/>
        <g stroke-width=".8">
            <path d="M7.64 16.058l-6.32-2.632V4.07l7.243 3.017 7.253-2.984v7.647M1.11 3.883l7.453-2.791 7.462 2.824M8.517 7.087v4.663"/>
            <path d="M14.502 9.764l-2.965 1.255V7.365l2.965-1.255zM12.096 2.352L4.804 5.555V8.44"/>
        </g>
    </g>
</svg>
