<svg width="26" height="26" xmlns="http://www.w3.org/2000/svg">
    <g fill="none" fill-rule="evenodd">
        <path stroke="#6F6F6F" stroke-width=".8" d="M14.284 11.75V3.158l-9.42 1.344v12.997l2.645-.378M1.221 2.548l10.089-1.44.667.987 2.515.988M4.863 4.502l-.74-1.05-2.614-.795-.16 12.692 3.377 2.266"/>
        <path d="M10.99 5.28c0 1.541-.489 2.487-1.39 2.487-1.006 0-1.39-.73-1.39-2.092l-.71.095c0 1.667.618 2.63 2.1 2.63 1.444 0 2.1-1.35 2.1-3.2l-.71.08z" fill="#6F6F6F" fill-rule="nonzero"/>
        <g stroke="#6F6F6F">
            <path d="M8.31 23.487H7l.567-11.737h12.92l2.598 5.025 1.947 1.39v5.322H23.82a2.667 2.667 0 0 0-.001-.621h.593v-4.38l-1.809-1.292-2.493-4.823H8.159l-.507 10.495h.659a2.666 2.666 0 0 0-.001.621zm5.246 0a2.667 2.667 0 0 0-.002-.621h5.02a2.666 2.666 0 0 0 0 .621h-5.018z" stroke-width=".2" fill="#6F6F6F" fill-rule="nonzero"/>
            <path d="M12.69 23.177a1.76 1.76 0 1 1-3.521 0 1.76 1.76 0 0 1 3.521 0zM22.923 23.177a1.76 1.76 0 1 1-3.521 0 1.76 1.76 0 0 1 3.521 0z" stroke-width=".8"/>
            <path d="M17.732 12.38l-.085-.386-.607.134.056.253h.636zm.137.622l.822 3.721 4.149-.05.007.622-4.654.056-.96-4.35h.636z" stroke-width=".2" fill="#6F6F6F" fill-rule="nonzero"/>
        </g>
    </g>
</svg>
