<svg width="26" height="26" xmlns="http://www.w3.org/2000/svg">
    <g stroke="#6F6F6F" fill="none" fill-rule="evenodd">
        <path d="M2.748 19.668H1L1.757 4h17.246l3.469 6.708 2.6 1.856v7.104h-1.62a3.56 3.56 0 0 0-.002-.83h.792v-5.847l-2.415-1.724L18.5 4.83H2.547L1.87 18.839h.88a3.56 3.56 0 0 0-.002.83zm7.003 0a3.56 3.56 0 0 0-.001-.83h6.7a3.56 3.56 0 0 0 0 .83H9.75z" stroke-width=".2" fill="#6F6F6F" fill-rule="nonzero"/>
        <path d="M8.596 19.253a2.35 2.35 0 1 1-4.701 0 2.35 2.35 0 0 1 4.7 0zM22.256 19.253a2.35 2.35 0 1 1-4.7 0 2.35 2.35 0 0 1 4.7 0z"/>
        <path d="M15.321 4.82l-.109-.495-.81.18.07.315h.85zm.184.83l1.102 4.989 5.537-.066.01.829-6.212.074-1.287-5.827h.85z" stroke-width=".2" fill="#6F6F6F" fill-rule="nonzero"/>
    </g>
</svg>
