<svg width="26" height="26" xmlns="http://www.w3.org/2000/svg">
    <g fill="none" fill-rule="evenodd">
        <path stroke="#6F6F6F" stroke-width=".8" d="M14.284 10.75V3.158l-9.42 1.344v12.997L10 16.7M1.221 2.548l10.089-1.44.667.987 2.515.988M4.863 4.502l-.74-1.05-2.614-.795-.16 12.692 3.377 2.266"/>
        <path d="M10.99 5.28c0 1.541-.489 2.487-1.39 2.487-1.006 0-1.39-.73-1.39-2.092l-.71.095c0 1.667.618 2.63 2.1 2.63 1.444 0 2.1-1.35 2.1-3.2l-.71.08z" fill="#6F6F6F" fill-rule="nonzero"/>
        <g stroke-width=".8" stroke="#6F6F6F">
            <path d="M17.345 24.674l-7.243-3.017v-9.356l7.243 3.018 7.254-2.984v9.355zM9.893 12.115l7.453-2.791 7.462 2.824M17.3 15.318v9.356"/>
            <path d="M23.285 17.996l-2.965 1.255v-3.654l2.965-1.255zM20.879 10.584l-7.292 3.203v2.883"/>
        </g>
    </g>
</svg>
