<?xml version="1.0" encoding="UTF-8" standalone="no"?>
<svg width="127px" height="82px" viewBox="0 0 127 82" version="1.1" xmlns="http://www.w3.org/2000/svg" xmlns:xlink="http://www.w3.org/1999/xlink" xmlns:sketch="http://www.bohemiancoding.com/sketch/ns">
    <!-- Generator: Sketch 3.0.1 (7597) - http://www.bohemiancoding.com/sketch -->
    <title>Group</title>
    <description>Created with Sketch.</description>
    <defs></defs>
    <g id="Page-1" stroke="none" stroke-width="1" fill="none" fill-rule="evenodd" sketch:type="MSPage">
        <g id="Group" sketch:type="MSLayerGroup" fill="#222222">
            <circle id="Oval-80" sketch:type="MSShapeGroup" cx="41.5" cy="75.5" r="6.5"></circle>
            <circle id="Oval-81" sketch:type="MSShapeGroup" cx="97.5" cy="75.5" r="6.5"></circle>
            <path d="M107.973083,23 L110,23 L110,19 L107.973083,19 L37.0269169,19 L35,19 L35,23 L37.0269169,23 L107.973083,23 Z" id="Line" sketch:type="MSShapeGroup"></path>
            <path d="M96.9823009,49 L99,49 L99,45 L96.9823009,45 L44.0176991,45 L42,45 L42,49 L44.0176991,49 L96.9823009,49 Z" id="Line-3" sketch:type="MSShapeGroup"></path>
            <path d="M103.015038,36 L105,36 L105,32 L103.015038,32 L40.9849624,32 L39,32 L39,36 L40.9849624,36 L103.015038,36 Z" id="Line-2" sketch:type="MSShapeGroup"></path>
            <path d="M5.83219564,3.57672445 L4.40035728,4.16260163 L18.5187124,4.16260163 L16.5289382,2.61516779 L32.2361068,62.4525662 L32.6423043,64 L34.225881,64 L104.585342,64 L105.949218,64 L106.481037,62.7302664 L123.634644,21.5506356 L121.788024,22.8197776 L127,22.6941275 L126.901848,18.5327088 L121.689872,18.658359 L120.361411,18.6903855 L119.843253,19.927501 L102.689646,61.1071319 L104.585342,59.8373984 L34.225881,59.8373984 L36.2156551,61.3848322 L20.5084866,1.54743383 L20.102289,0 L18.5187124,0 L4.40035728,0 L3.56716859,0 L2.96851891,0.585877172 L0,3.49106117 L2.86367673,6.48190845 L5.83219564,3.57672445 Z" id="Path-108" sketch:type="MSShapeGroup"></path>
        </g>
    </g>
</svg>