<?xml version="1.0" encoding="utf-8"?>
<!-- Generator: Adobe Illustrator 17.1.0, SVG Export Plug-In . SVG Version: 6.00 Build 0)  -->
<!DOCTYPE svg PUBLIC "-//W3C//DTD SVG 1.1//EN" "http://www.w3.org/Graphics/SVG/1.1/DTD/svg11.dtd">
<svg version="1.1" id="Layer_1" xmlns="http://www.w3.org/2000/svg" xmlns:xlink="http://www.w3.org/1999/xlink" x="0px" y="0px"
	 viewBox="0 0 186.195 186.193" enable-background="new 0 0 186.195 186.193" xml:space="preserve">
<g>
	<path d="M0,93.08C0.011,41.668,41.691-0.006,93.11,0c51.415,0.008,93.09,41.69,93.085,93.111
		c-0.014,51.414-41.695,93.088-93.111,93.082C41.666,186.186-0.008,144.497,0,93.08z"/>
	<g>
		<line fill="#FFFFFF" x1="139.998" y1="115.185" x2="46.196" y2="115.172"/>
		<polygon fill="#FFFFFF" points="139.998,115.981 46.196,115.967 46.196,114.375 139.998,114.388 139.998,115.981 		"/>
	</g>
	<g>
		<line fill="#FFFFFF" x1="139.998" y1="68.986" x2="46.196" y2="68.972"/>
		<polygon fill="#FFFFFF" points="139.998,69.783 46.196,69.77 46.196,68.178 139.998,68.19 139.998,69.783 		"/>
	</g>
</g>
<g>
	<polygon fill="none" points="130.333,93.069 137.359,93.069 133.845,85.299 	"/>
	<path fill="none" d="M111.166,93.873h-9.525v6.549h9.525c3.008,0,4.406-1.131,4.406-3.274
		C115.572,95.153,114.531,93.873,111.166,93.873z"/>
	<path fill="none" d="M114.499,87.383c0-1.786-1.07-2.858-3.334-2.858h-9.525v6.133h9.525
		C113.369,90.658,114.499,89.377,114.499,87.383z"/>
	<path fill="none" d="M167.541,87.681c0-2.531-1.936-3.156-3.781-3.156h-9.943v6.579h9.943
		C166.171,91.104,167.541,89.854,167.541,87.681z"/>
	<polygon fill="#FFFFFF" points="27.173,95.183 19.552,81.31 16.337,81.31 16.337,103.637 19.552,103.637 19.552,88.008 
		19.611,88.008 27.173,101.732 34.734,88.008 34.794,88.008 34.794,103.637 38.009,103.637 38.009,81.31 34.794,81.31 	"/>
	<rect x="46.785" y="81.31" fill="#FFFFFF" width="3.215" height="22.328"/>
	<polygon fill="#FFFFFF" points="75.241,98.279 75.182,98.279 61.904,81.31 58.689,81.31 58.689,103.637 61.904,103.637 
		61.904,86.668 61.964,86.668 75.241,103.637 78.457,103.637 78.457,81.31 75.241,81.31 	"/>
	<rect x="87.025" y="81.31" fill="#FFFFFF" width="3.215" height="22.328"/>
	<path fill="#FFFFFF" d="M115.72,91.878c0.805-0.804,1.996-2.054,1.996-4.495c0-4.228-3.246-6.073-6.551-6.073h-12.74v22.328h12.74
		c4.316,0,7.621-2.233,7.621-6.49C118.787,94.349,116.972,92.444,115.72,91.878z M101.64,84.525h9.525
		c2.264,0,3.334,1.072,3.334,2.858c0,1.995-1.131,3.275-3.334,3.275h-9.525V84.525z M111.166,100.422h-9.525v-6.549h9.525
		c3.365,0,4.406,1.28,4.406,3.275C115.572,99.291,114.173,100.422,111.166,100.422z"/>
	<path fill="#FFFFFF" d="M132.119,81.31l-10.092,22.328h3.514l3.305-7.353h9.973l3.186,7.353h3.631l-9.943-22.328H132.119z
		 M130.333,93.069l3.512-7.77l3.514,7.77H130.333z"/>
	<path fill="#FFFFFF" d="M170.755,87.681c0-4.555-3.424-6.371-6.996-6.371h-13.158v22.328h3.215v-9.318h8.307l4.465,9.318h3.662
		l-4.615-9.437C167.509,94.051,170.755,92.533,170.755,87.681z M153.816,91.104v-6.579h9.943c1.846,0,3.781,0.625,3.781,3.156
		c0,2.173-1.369,3.423-3.781,3.423H153.816z"/>
</g>
</svg>
