
<svg width="14px" height="12px" viewBox="0 0 14 12" version="1.1" xmlns="http://www.w3.org/2000/svg" xmlns:xlink="http://www.w3.org/1999/xlink">
    <!-- Generator: Sketch 49.3 (51167) - http://www.bohemiancoding.com/sketch -->
    <desc>Created with Sketch.</desc>
    <defs></defs>
    <g id="Page-1" stroke="none" stroke-width="1" fill="none" fill-rule="evenodd">
        <g id="PDP_web_Prop65Warning" transform="translate(-624.000000, -828.000000)">
            <g id="Prop-65-Warning" transform="translate(623.000000, 825.000000)">
                <g id="icon-prop65-warning" transform="translate(1.000000, 3.000000)">
                    <g id="bwwarning">
                        <path d="M0.492667877,11.9796598 L13.5065953,11.9796598 C13.6747223,11.9796598 13.8301452,11.891751 13.9142214,11.7489959 C13.9983485,11.6063402 13.9983485,11.430473 13.9142214,11.2878174 L7.40727042,0.24453112 C7.32316878,0.101825726 7.16779673,0.0139170124 6.99964428,0.0139170124 C6.83146642,0.0139170124 6.67609437,0.101825726 6.59201815,0.24453112 L0.0850163339,11.2878174 C0.000914700544,11.430473 0.000914700544,11.6063402 0.0850163339,11.7489959 C0.169092559,11.8917012 0.324490018,11.9796598 0.492667877,11.9796598 Z" id="path8" fill="#000000" fill-rule="nonzero"></path>
                        <polygon id="polygon10" fill="#FFFFFF" fill-rule="nonzero" points="6.99961887 1.40280498 12.6866933 11.0545643 1.31254446 11.0545643"></polygon>
                        <ellipse id="circle12" fill="#000000" fill-rule="nonzero" cx="6.99961887" cy="9.61190041" rx="1" ry="1"></ellipse>
                        <path d="M7.39555717,8.25515353 L7.86296915,4.07738589 C7.90108167,3.73680498 7.72817786,3.40678008 7.42348094,3.23863071 C7.11883485,3.07048133 6.74119056,3.09659751 6.46368058,3.30505394 C6.1861706,3.51351037 6.0623049,3.86407469 6.14889655,4.1960166 L6.63475499,8.34211618 C6.65038113,8.47543568 6.73750635,8.59050622 6.86325227,8.64375934 C6.98899819,8.69703734 7.1342323,8.68043154 7.244098,8.60021577 C7.35391289,8.52004979 7.41169147,8.38842324 7.39555717,8.25515353" id="path14" fill="#000000" fill-rule="nonzero"></path>
                    </g>
                </g>
            </g>
        </g>
    </g>
</svg>