<svg xmlns="http://www.w3.org/2000/svg" fill="#a2a1a1" width="512" height="512" viewBox="0 0 512 512">
    <path fill-rule="evenodd" clip-rule="evenodd" d="M414.474 224.292h-35.87c2.614 10.145 4.157 20.744 4.157 31.7 0 70.022-56.75 126.772-126.76 126.772s-126.76-56.75-126.76-126.774c0-10.953 1.55-21.553 4.165-31.697H97.53V398.61c0 8.742 7.096 15.832 15.86 15.832h285.22c8.765 0 15.863-7.09 15.863-15.832V224.292zm0-110.914c0-8.75-7.1-15.846-15.864-15.846h-47.526c-8.756 0-15.846 7.096-15.846 15.846v47.545c0 8.744 7.09 15.846 15.846 15.846h47.526c8.766 0 15.864-7.108 15.864-15.85v-47.547zM256 176.768c-43.763 0-79.233 35.464-79.233 79.224 0 43.756 35.47 79.24 79.233 79.24 43.76 0 79.237-35.484 79.237-79.24 0-43.76-35.478-79.223-79.237-79.223M414.474 462H97.53C71.284 462 50 440.71 50 414.44V97.532c0-26.254 21.284-47.53 47.53-47.53h316.943C440.723 50 462 71.277 462 97.53v316.91c0 26.27-21.277 47.56-47.527 47.56"/>
</svg>
