<svg xmlns="http://www.w3.org/2000/svg" width="512" height="512" viewBox="0 0 512 512" fill="#a2a1a1">
    <path d="M462 128.223c-15.158 6.724-31.45 11.27-48.547 13.31 17.45-10.46 30.854-27.025 37.164-46.764a169.218 169.218 0 0 1-53.676 20.51c-15.412-16.43-37.38-26.69-61.692-26.69-54.56 0-94.668 50.91-82.337 103.78-70.25-3.523-132.534-37.176-174.223-88.313-22.142 37.983-11.485 87.69 26.158 112.85a84.148 84.148 0 0 1-38.284-10.574c-.917 39.162 27.146 75.78 67.795 83.95a84.688 84.688 0 0 1-38.17 1.446c10.755 33.58 41.973 58.017 78.96 58.7-35.54 27.85-80.297 40.29-125.144 35.004 37.407 23.982 81.838 37.977 129.57 37.977 156.934 0 245.597-132.55 240.253-251.434C436.34 160.06 450.67 145.172 462 128.22z"/>
</svg>
