<svg xmlns="http://www.w3.org/2000/svg" width="100" height="100" viewBox="0 0 100 100">
    <path fill="none" d="M36.675 23.314c1.18-.01 13.648-.09 22.087-.267H14.587c8.44.176 20.91.258 22.088.267zm-17.47 59.264c.96 3.69 4.803 2.308 4.803 2.308V35.974H15.62s2.624 42.913 3.585 46.604zm13.448-46.604h6.05V85.14h-6.05zm14.505 48.912s3.844 1.384 4.805-2.308c.96-3.69 3.586-46.604 3.586-46.604h-8.397v48.912zm23.48-44.53c-1.204 1.62-2.343 2.487-3.374 2.88-.287 9.636-1.223 20.372-2.09 28.866 3.012 1.66 7.865 3.656 11.44 1.825 5.036-2.58 10.23-8.032 7.985-20.684-2.25-12.65-9.09-19.443-13.968-12.886z"/>
    <path d="M91.914 55.736c-1.94-21.29-12.282-25.768-18.006-24.683-3.65.692-5.426.75-6.698.5-.173-3.362-.513-6.278-1.07-8.505h.056c.2-.75.31-1.535.31-2.346 0-4.008-2.614-7.414-6.26-8.663.015-.17.022-.34.022-.518 0-4.008-3.55-7.258-7.928-7.258-1.66 0-3.2.467-4.47 1.263a15.364 15.364 0 0 0-9.16-3.008 15.35 15.35 0 0 0-9.742 3.46c-1.387-1.068-3.22-1.717-5.23-1.717-3.982 0-7.268 2.545-7.767 5.84-5.03.53-8.97 5.41-8.97 11.35 0 .54.035 1.068.097 1.587h.12C3.427 38.126 9.7 84.76 9.847 87.46c.15 2.718 2.82 8.154 10.1 8.68 6.59.477 15.057.57 16.604.59h.25c1.547-.013 10.014-.11 16.6-.585 7.284-.525 9.954-5.963 10.105-8.68.032-.597.364-3.338.82-7.41.93-.54 1.738-.147 10.044 1.182 11.495 1.838 18.696-14.566 17.546-25.5zM19.37 13.246c.42-2.498 3.166-4.426 6.497-4.426 1.682 0 3.214.492 4.374 1.3 2.22-1.638 5.06-2.622 8.15-2.622 2.87 0 5.527.848 7.66 2.28a7.606 7.606 0 0 1 3.74-.958c3.666 0 6.636 2.462 6.636 5.5 0 .13-.007.258-.018.387 3.047.947 5.232 3.527 5.232 6.563a6.35 6.35 0 0 1-.24 1.717c-.815.02-1.7.042-2.634.06-8.437.176-20.907.26-22.086.268-1.18-.01-13.648-.09-22.09-.267-.94-.02-1.83-.04-2.65-.06a9.136 9.136 0 0 1-.074-1.142c0-4.503 3.3-8.198 7.51-8.6zm4.637 71.64s-3.843 1.384-4.803-2.308c-.96-3.69-3.585-46.604-3.585-46.604H24v48.912zm14.698.255h-6.05V35.98h6.05v49.16zm13.258-2.56c-.96 3.69-4.805 2.31-4.805 2.31V35.975h8.39s-2.625 42.913-3.585 46.604zm24.65-8.65c-3.574 1.83-8.428-.164-11.438-1.823.866-8.494 1.802-19.23 2.09-28.867 1.03-.393 2.17-1.26 3.372-2.88 4.875-6.557 11.717.236 13.965 12.886 2.246 12.652-2.952 18.103-7.99 20.684z"/>
</svg>
