<svg xmlns="http://www.w3.org/2000/svg" version="1" viewBox="0 0 43.2 62.9">
    <path fill="#FFF" d="M43.3 62.9L22 55.8 0 62.9V0h43.3z"/>
    <path fill="#222" d="M43.3 62.9L22 55.8 0 62.9V0h1v61.6l21-6.9 20.3 6.9V0h1z"/>
    <path fill-rule="evenodd" clip-rule="evenodd" fill="#222" d="M21.6 8.8l2 3.8 4 .8-2.8 3.1.5 4.3-3.7-1.8-3.7 1.8.5-4.3-2.8-3.1 4-.8 2-3.8"/>
    <path fill="#222" d="M10.4 29.2c-.1-.1-.3-.3-.5-.3-.2-.1-.4-.1-.6-.1H9c-.1 0-.2.1-.3.1-.1.1-.2.1-.2.2-.1.1-.1.2-.1.3 0 .2.1.3.2.4.2.2.3.2.6.3.2.1.5.1.7.2.3.1.5.2.7.3.2.1.4.3.5.5.1.2.2.5.2.9s-.1.7-.2.9c-.1.3-.3.5-.5.7-.2.2-.5.3-.8.4s-.6.1-.9.1c-.4 0-.8-.1-1.2-.2-.4-.1-.7-.3-1-.6l1-1.1c.1.2.3.3.5.4.2.1.4.2.7.2h.3c.1 0 .2-.1.3-.1.1-.1.2-.1.2-.2.1-.1.1-.2.1-.3 0-.2-.1-.3-.2-.5s-.3-.2-.6-.3c-.2-.1-.5-.2-.7-.2-.3-.1-.5-.2-.7-.3-.2-.1-.4-.3-.6-.5-.1-.2-.2-.5-.2-.9 0-.3.1-.6.2-.9.1-.3.3-.5.5-.6.2-.2.5-.3.8-.4s.6-.1.9-.1c.4 0 .7.1 1 .2.3.1.6.3.9.5l-.7 1zm3.9-.3h-1.8v-1.2h5v1.2h-1.8V34h-1.4v-5.1zm5.8-1.3h1.2l2.8 6.4h-1.6l-.5-1.4h-2.5l-.6 1.4h-1.5l2.7-6.4zm.6 1.9l-.8 2h1.6l-.8-2zm4.7-1.9h4.3v1.3h-2.9v1.3h2.7v1.3h-2.7V34h-1.4v-6.4zm6 0h4.3v1.3h-2.9v1.3h2.7v1.3h-2.7V34h-1.4v-6.4zm-20.9 12h2.4c.3 0 .6 0 .9.1.3.1.6.2.8.3.2.1.4.3.5.6.1.2.2.6.2.9 0 .4-.1.7-.2.9s-.3.5-.5.6c-.2.1-.5.3-.7.3-.3.1-.6.1-.9.1h-1V46h-1.4v-6.4zm1.4 2.7h1.3c.2 0 .2-.1.3-.1.1-.1.2-.1.2-.2.1-.1.1-.2.1-.4s0-.3-.1-.4c-.1-.1-.2-.2-.3-.2-.1-.1-.2-.1-.4-.1h-1.1v1.4zm4.9-2.7h1.4V46h-1.4v-6.4zm7.5 1.7c-.1-.2-.3-.3-.5-.4-.2-.1-.4-.1-.7-.1s-.5.1-.7.2-.4.2-.6.4c-.2.2-.3.4-.4.7-.1.3-.1.5-.1.8 0 .3 0 .6.1.8.1.2.2.5.4.6s.4.3.6.4.5.2.7.2c.3 0 .5-.1.8-.2.2-.1.4-.3.5-.5l1.2.9c-.3.4-.6.7-1 .8-.4.2-.8.3-1.3.3s-1-.1-1.4-.2c-.4-.2-.8-.4-1.1-.7-.3-.3-.5-.6-.7-1.1-.2-.4-.3-.9-.3-1.4 0-.5.1-1 .3-1.4.2-.4.4-.8.7-1.1.3-.3.7-.5 1.1-.7.4-.2.9-.2 1.4-.2h.6c.2 0 .4.1.6.2.2.1.4.2.5.3.2.1.3.3.5.4l-1.2 1zm2.7-1.7h1.4v2.6l2.5-2.6h1.8l-2.8 3L33 46h-2l-2.6-3v3H27v-6.4z"/>
</svg>
