<svg xmlns="http://www.w3.org/2000/svg" width="100" height="66" viewBox="-0.063 5.636 100 66">
    <path d="M84.933 5.636H14.938a3 3 0 0 0-3 3V50.64a3 3 0 0 0 3 3h69.994c1.655 0 3-1.345 3-3V8.637c.002-1.66-1.337-3-3-3zm-.99 43.996H15.938V9.635H83.94v39.997zm4.097 6.018c-.602-.557-1.777-1.014-2.598-1.014H14.435c-.824 0-1.992.457-2.595 1.014L-.063 66.632v2.003s0 3 3 3h94c3 0 3-3 3-3v-2.003L88.04 55.65zM36.8 62.007h26.277L65.1 65.27H34.77l2.028-3.263zm20.137 5.63a1 1 0 0 1-.998.998h-12a.997.997 0 0 1-1-.997v-1.006h13.99v1.006z"/>
</svg>
