<svg xmlns="http://www.w3.org/2000/svg" width="125" height="54" viewBox="0 0 125 54">
    <g fill="none" fill-rule="evenodd">
        <rect fill="#222" width="125" height="54" rx="4"/>
        <text font-family="Avenir Next" font-size="12" letter-spacing=".6" fill="#FFF">
            <tspan x="10" y="21">get it for</tspan>
        </text>
        <text font-family="Avenir Next" font-size="14" font-weight="526" letter-spacing=".7" fill="#FFF">
            <tspan x="10" y="40">Android</tspan>
        </text>
        <path d="M106.523 22.916v12.2c0 1.107-.874 2.005-1.95 2.005h-12.44c-1.076 0-1.95-.892-1.95-2v-12.2" fill="#FFF"/>
        <path d="M106.523 22.916v12.2c0 1.107-.874 2.005-1.95 2.005h-12.44c-1.076 0-1.95-.892-1.95-2v-12.2" stroke="#FFF" stroke-width=".86"/>
        <path d="M106.58 22.26c0-4.29-3.685-7.766-8.232-7.766-4.547 0-8.232 3.477-8.232 7.766h16.464M85.82 32.313c0 1.04.818 1.88 1.827 1.88 1.01 0 1.828-.84 1.828-1.88V24.44c0-1.037-.818-1.88-1.828-1.88-1.01 0-1.827.843-1.827 1.88v7.873m7.643 8.972c0 1.04.818 1.88 1.828 1.88 1.01 0 1.83-.84 1.83-1.88V36.78c0-1.036-.82-1.878-1.824-1.878-1.01 0-1.827.842-1.827 1.88v4.503" fill="#FFF"/>
        <path d="M95.294 18.485a.7.7 0 0 1-.69.71.7.7 0 0 1-.69-.71.7.7 0 0 1 .69-.71.7.7 0 0 1 .69.71" fill="#FFF"/>
        <path d="M93.263 12.972l1.44 2.7" stroke="#FFF" stroke-width="3.722" stroke-linecap="round" stroke-linejoin="round"/>
        <path d="M110.883 32.313c0 1.04-.818 1.88-1.827 1.88-1.01 0-1.828-.84-1.828-1.88V24.44c0-1.037.82-1.88 1.828-1.88 1.01 0 1.827.843 1.827 1.88v7.873m-7.643 8.972c0 1.04-.818 1.88-1.827 1.88-1.01 0-1.828-.84-1.828-1.88V36.78c0-1.036.82-1.878 1.828-1.878 1.01 0 1.827.842 1.827 1.88v4.503m-1.83-22.8a.7.7 0 0 0 .69.71.7.7 0 0 0 .688-.71.7.7 0 0 0-.69-.71.7.7 0 0 0-.69.71" fill="#FFF"/>
        <path d="M103.44 12.972l-1.44 2.7" stroke="#FFF" stroke-width="3.722" stroke-linecap="round" stroke-linejoin="round"/>
    </g>
</svg>
