<svg width="101" height="67" viewBox="0 0 101 67" xmlns="http://www.w3.org/2000/svg">
    <g fill="none" fill-rule="evenodd">
        <path d="M85.933.636H15.938a3 3 0 0 0-3 3V45.64a3 3 0 0 0 3 3h69.994c1.655 0 3-1.345 3-3V3.637c.002-1.66-1.337-3-3-3zm-.99 43.996H16.938V4.635H84.94v39.997zm4.097 6.018c-.602-.557-1.777-1.014-2.598-1.014H15.435c-.824 0-1.992.457-2.595 1.014L.937 61.632v2.003s0 3 3 3h94c3 0 3-3 3-3v-2.003L89.04 50.65zM37.8 57.007h26.277L66.1 60.27H35.77l2.028-3.263zm20.137 5.63a1 1 0 0 1-.998.998h-12a.997.997 0 0 1-1-.997v-1.006h13.99v1.006z" fill="#000"/>
        <text font-family="Avenir Next" font-size="15" fill="#222" transform="translate(1 1)">
            <tspan x="35" y="31">iPad</tspan>
        </text>
    </g>
</svg>
