<svg xmlns="http://www.w3.org/2000/svg" width="100" height="100" viewBox="0 0 100 100">
    <path d="M65.03 6.898h-1.102v-.174a.45.45 0 0 0-.45-.45h-6.91a.452.452 0 0 0-.45.45v.174h-20.41a6.816 6.816 0 0 0-6.807 6.808v.81h-.283a.45.45 0 0 0-.45.45v3.46c0 .25.202.45.45.45h.29v5.99h-.29a.45.45 0 0 0-.45.45v2.31c0 .25.202.452.45.452h.29v3.69h-.29a.45.45 0 0 0-.45.45v2.31c0 .248.202.45.45.45h.29v51.94a6.816 6.816 0 0 0 6.807 6.81h29.32a6.815 6.815 0 0 0 6.807-6.81v-73.21a6.815 6.815 0 0 0-6.807-6.81zm-18.074 6.706h6.248c.47 0 .854.333.854.743s-.384.743-.854.743h-6.248c-.47 0-.854-.333-.854-.743s.383-.743.854-.743zm-3.25.024a.72.72 0 1 1 0 1.44.72.72 0 0 1 0-1.44zm6.376 76.17a4.218 4.218 0 1 1 0-8.436 4.218 4.218 0 0 1 0 8.435zM69.25 77.91H30.914v-57.5H69.25v57.5z"/>
</svg>
