<svg version="1" xmlns="http://www.w3.org/2000/svg" width="49" height="35" viewBox="-263 271 49 35">
    <g transform="translate(-233 -377)">
        <path d="M1.7 657c1.3 2.3 6.4 11.3 11.3 15.2v8.8h-37v-8.8c2.8-2.3 5.2-5.9 6.6-8.3 0 0 3.3-5.9 3.7-6.9H1.4m.4-1h-15.6l-4 7.3c-2 3.4-4.6 7-7.2 8.9v9.8h39v-9.8C8.6 668.2 1.8 656 1.8 656z"/>
        <path fill="none" stroke="#000" d="M6 663.2l9.8.5c1.8 0 2.1-3.3 2.1-6.2 0-2.8-4.2-6.3-7.8-7.2 0 0-7.1-1.8-15.7-1.8s-15.7 1.8-15.7 1.8c-3.7.8-8.4 3.7-8.4 6.9s.5 6.5 2.1 6.5l10.3-.7"/>
        <circle fill="none" stroke="#000" cx="-6.1" cy="669.1" r="8"/>
    </g>
</svg>
