<svg xmlns="http://www.w3.org/2000/svg" width="100" height="100" viewBox="0 0 100 100">
    <path d="M34.53 89.375h12.657V95H34.53zm18.282 0h12.656V95H52.812zm0-15.47h12.656v12.657H52.812zm-18.282 0h12.657v12.657H34.53zM52.812 61.25h12.656v9.844H52.812zm-18.282 0h12.657v9.844H34.53zm0-32.344h30.94v29.53H34.53zm-11.25 0h8.44v15.47h-8.44zm0 18.282h8.44v15.47h-8.44zm45-18.282h8.44v15.47h-8.44zm0 18.282h8.44v15.47h-8.44zM61.25 5h-22.5v21.094h22.5V5zM48.594 19.062h-7.03V9.22h7.03v9.842zm9.844 0h-7.03V9.22h7.03v9.842z"/>
    <path d="M42.97 12.03h4.218v4.22h-4.22zm9.842 0h4.22v4.22h-4.22z"/>
</svg>
