<svg version="1" xmlns="http://www.w3.org/2000/svg" width="40" height="26" viewBox="-267 276 40 26">
    <path fill="#222" d="M-229.92 276.99c1.3 0 1.9.6 1.9 2.1v20.1c0 1.3-.6 1.9-2 1.9h-34c-1.4 0-2-.6-2-2v-19.9c0-1.5.6-2.1 2-2.1h34.1m0-1.1h-34.1c-2 0-3 1.1-3 3.1v19.9c0 2 1.1 3 3 3h34c2 0 3-1 3-2.9v-20.1c0-1.9-1-3-2.9-3z"/>
    <path fill="#222" d="M-265.54 276.727l19.304 19.304-.707.71-19.304-19.3z"/>
    <path fill="#222" d="M-228.664 276.898l.707.707-18.667 18.667-.707-.707z"/>
    <path fill="#222" d="M-239.67 288.642l11.95 11.95-.706.707-11.95-11.95zm-14.62.013l.707.707-11.88 11.88-.707-.708z"/>
</svg>
