<svg width="125" height="54" viewBox="0 0 125 54" xmlns="http://www.w3.org/2000/svg">
    <g fill="none" fill-rule="evenodd">
        <rect fill="#222" width="125" height="54" rx="4"/>
        <text font-family="Avenir Next" font-size="12" letter-spacing=".6" fill="#FFF">
            <tspan x="15" y="21">get it for</tspan>
        </text>
        <text font-family="Avenir Next" font-size="14" font-weight="526" letter-spacing=".7" fill="#FFF">
            <tspan x="15" y="40">iOS</tspan>
        </text>
        <path d="M104.685 26.76c-.032-3.58 2.88-5.323 3.012-5.404-1.648-2.448-4.203-2.783-5.1-2.81-2.147-.23-4.228 1.308-5.32 1.308-1.116 0-2.8-1.285-4.614-1.247-2.334.036-4.518 1.413-5.716 3.55-2.472 4.36-.628 10.765 1.74 14.29 1.185 1.725 2.57 3.65 4.38 3.583 1.774-.073 2.436-1.15 4.575-1.15 2.12 0 2.742 1.15 4.59 1.107 1.902-.03 3.1-1.734 4.243-3.475 1.37-1.976 1.92-3.925 1.94-4.025-.043-.016-3.693-1.436-3.73-5.727m-3.49-10.53c.953-1.216 1.605-2.868 1.424-4.544-1.38.062-3.11.972-4.1 2.16-.88 1.046-1.67 2.762-1.468 4.375 1.55.12 3.142-.79 4.137-1.99" fill="#FFF"/>
    </g>
</svg>
