<svg width="29" height="34" viewBox="0 0 29 34" xmlns="http://www.w3.org/2000/svg">
    <path d="M26.93 28.067l-4.244-6.02a1.138 1.138 0 0 0-1.55-.263s-1.624 1.016-2.178 1.355c-.553.3-1.144.56-1.44.6-2.804.45-6.53-4.14-7.49-5.798-2.14-3.688-2.03-6.32-1.772-6.81.184-.34.59-.678 1.033-.903.03 0 .07-.038.07-.038l3.1-1.543c.515-.338.7-1.015.37-1.54L7.96.902A1.075 1.075 0 0 0 6.45.527l-2.99 1.88c-.073.04-.147.114-.22.15l-.296.19a.784.784 0 0 0-.185.15C1.61 3.762.8 4.93.982 7.412c.183 2.144 1.07 7.788 5.424 14.11l.04.036c.256.34 6.42 8.692 14.132 10.535.22.038.442.075.7.075.185 0 .406 0 .59-.037.185 0 .333-.032.517-.07.11-.037.187-.037.26-.075.075 0 .148-.036.185-.036 1.698-.453 2.805-.98 3.58-1.544 1.144-.75.85-1.843.517-2.332z" fill-rule="evenodd"/>
</svg>
