<svg xmlns="http://www.w3.org/2000/svg" xmlns:xlink="http://www.w3.org/1999/xlink" version="1.1" x="0px" y="0px" viewBox="0 0 97.599 100" enable-background="new 0 0 97.599 100" xml:space="preserve"><g><path d="M85.007,72.25c0.504-1.606,0.789-3.307,0.789-5.076v-2.033h0.132c4.108,0,7.452-3.342,7.452-7.451   c0-1.028-0.212-2.033-0.63-2.989l-0.016-0.038l-0.018-0.037l-5.675-12.468l9.681,1.546l0.876-5.484l-7.805-1.247   c-0.007-0.016-0.008-0.034-0.015-0.05L78.86,12.747c-0.348-0.771-1.029-1.343-1.85-1.55L33.069,0.086   c-1.211-0.309-2.471,0.23-3.091,1.312L16.307,25.233l-7.519-1.2l-0.876,5.484l11.202,1.789c-0.847,2.965-1.31,6.088-1.31,9.32   c0,6.024,1.561,11.777,4.446,16.819l-10.724-2.53l6.142,20.592C7.701,79.365,0.532,88.804,0,100h91.706l-3.385-13.529l8.461-11.443   L85.007,72.25z M23.359,40.626c0-2.938,0.447-5.772,1.274-8.438l55.827,8.919l7.201,15.818h-0.003   c0.104,0.236,0.165,0.491,0.165,0.765c0,1.05-0.848,1.896-1.896,1.896h-5.687v7.588c0,1.333-0.242,2.606-0.662,3.796L30.474,59.385   C26.057,54.381,23.359,47.827,23.359,40.626z"></path><circle cx="74.246" cy="46.533" r="3.472"></circle></g></svg>