<svg version="1" xmlns="http://www.w3.org/2000/svg" viewBox="0 0 84.4 84.4">
    <path fill="#fff" d="M64.4 29.6c-1.6.7-3.3 1.2-5.1 1.4 1.8-1.1 3.2-2.8 3.9-4.8-1.7 1-3.6 1.7-5.6 2.1-1.6-1.7-3.9-2.7-6.5-2.7-5.7 0-9.9 5.2-8.6 10.6-7.4-.4-13.9-3.8-18.3-9-2.3 3.9-1.2 9 2.7 11.5-1.5 0-2.8-.4-4-1.1-.1 4 2.8 7.7 7.1 8.6-1.2.3-2.6.4-4 .1 1.1 3.4 4.4 5.9 8.3 6-3.7 2.8-8.4 4.1-13.1 3.6 3.9 2.4 8.6 3.9 13.6 3.9 16.5 0 25.8-13.5 25.2-25.7 1.7-1.3 3.2-2.8 4.4-4.5z"/>
    <circle fill="none" stroke="#fff" stroke-width="4" stroke-miterlimit="10" cx="42.2" cy="42.2" r="40.2"/>
</svg>
