<svg width="19" height="16" xmlns="http://www.w3.org/2000/svg">
    <g fill="none" fill-rule="evenodd">
        <path d="M6.421 15.385c1.062-.285 2.039-1.084 2.884-2.189l.15-.196h4.752a3.5 3.5 0 0 0 3.5-3.5V4a3.5 3.5 0 0 0-3.5-3.5H4A3.5 3.5 0 0 0 .5 4v5.5A3.5 3.5 0 0 0 4 13h2.551l.052.442a4.457 4.457 0 0 1-.182 1.943z" stroke="#9B9B9B"/>
        <g fill="#9B9B9B">
            <path d="M9.126 7.5a.754.754 0 0 0 .76-.75c0-.414-.34-.75-.76-.75a.754.754 0 0 0-.758.75c0 .414.34.75.758.75zM12.667 7.5a.754.754 0 0 0 .758-.75c0-.414-.34-.75-.758-.75a.754.754 0 0 0-.759.75c0 .414.34.75.759.75zM5.586 7.5a.754.754 0 0 0 .759-.75c0-.414-.34-.75-.759-.75a.754.754 0 0 0-.758.75c0 .414.34.75.758.75z"/>
        </g>
    </g>
</svg>
